<?xml version="1.0" encoding="UTF-8"?> <svg xmlns="http://www.w3.org/2000/svg" xmlns:xlink="http://www.w3.org/1999/xlink" xmlns:avocode="https://avocode.com/" id="SVGDoc" width="100" height="159" viewBox="0 0 100 159"><defs><clipPath id="clip-771D3DE3-D0BF-48F7-A4A9-C334D0B0DABC"><path d="M0,0.71v0h99.46124v0v79.23727v0h-99.46124v0z"></path></clipPath></defs><desc>Generated with Avocode.</desc><g><g><title>Group 45</title><g><title>Fill 1</title><path d="M16.24719,97.01609v0l-5.64386,12.77809v0l-5.63333,0.03501v0l9.72281,-20.40818v0l3.05965,-0.02101v0l9.98772,20.28216v0l-5.63158,0.03676v0z" fill="#2d2f38" fill-opacity="1"></path></g><g><title>Group 44</title><g><title>Fill 2</title><path d="M37.47024,99.42572c-0.04035,-6.15274 4.97895,-10.68983 12.16316,-10.73534c7.23509,-0.04727 12.31403,4.37605 12.35439,10.57605c0.04035,6.15274 -4.98071,10.78611 -12.21404,10.83513c-7.18596,0.04376 -12.26316,-4.62112 -12.30351,-10.67584M42.56674,99.3452c0.02105,3.34156 2.6614,6.13348 7.17719,6.10548c4.61228,-0.02976 7.16667,-2.90571 7.14737,-6.2c-0.02105,-3.19628 -2.71228,-6.03722 -7.22807,-6.00746c-4.51579,0.02801 -7.11755,2.85669 -7.09649,6.10198" fill="#2d2f38" fill-opacity="1"></path></g><g><title>Fill 4</title><path d="M76.45316,101.84753c0.92982,1.34958 2.05263,2.11626 3.02631,2.64489c1.17018,0.57239 2.82106,0.90147 4.32807,0.89272c2.52281,-0.01751 3.78071,-0.84896 4.16842,-1.18854c0.91579,-0.73343 1.63685,-1.94997 1.87193,-3.35731l-9.22456,0.05951v0l-0.02982,-4.35855v0l9.12631,-0.05952c-0.5421,-1.54737 -1.51929,-2.41033 -2.29824,-2.84093c-1.51053,-0.8157 -3.40351,-0.85246 -3.98597,-0.84721c-1.65087,0.0105 -3.05789,0.30983 -4.21929,0.94698c-0.24211,0.14704 -1.59474,0.98024 -2.8,2.38933l-3.7579,-2.92671c1.78421,-1.99898 3.67018,-2.98097 4.3,-3.3223c2.12807,-1.12728 4.45614,-1.4336 6.78772,-1.44935c2.2807,-0.01576 6.26491,0.29932 9.09825,3.09124c2.44386,2.40684 2.80175,5.3563 2.81579,7.48832c0.01754,2.66414 -0.54562,5.42981 -3.05614,7.81914c-2.7,2.63263 -6.09825,2.99497 -8.7193,3.01073c-2.3807,0.01575 -4.61404,-0.26082 -6.95088,-1.36008c-1.80351,-0.90672 -3.2193,-2.01299 -4.44386,-3.75116z" fill="#2d2f38" fill-opacity="1"></path></g><g><title>Fill 9</title><path d="M6.70351,139.25684h1.37895c0.12456,-2.15827 1.46315,-3.48684 3.2807,-3.48684c1.90702,0 3.29123,1.46685 3.29123,3.82117c0,2.35432 -1.38421,3.82293 -3.29123,3.82293c-1.7807,0 -3.10176,-1.27606 -3.27369,-3.35731h-1.38596v3.25403h-0.90351v-7.4393h0.90351zM8.94918,139.59618c0,1.93572 1.05996,2.98247 2.41027,2.98247c1.35032,0 2.41028,-1.04676 2.41028,-2.98247c0,-1.93396 -1.05996,-2.98247 -2.41028,-2.98247c-1.35031,0 -2.41027,1.04851 -2.41027,2.98247z" fill="#2d2f38" fill-opacity="1"></path></g><g><title>Fill 11</title><path d="M16.94,135.87h2.51929c1.75087,0 2.53508,1.03975 2.53508,2.35432c0,1.31282 -0.78421,2.36657 -2.51929,2.36657h-1.63157v2.71841h-0.90351zM19.44529,139.7927c1.19694,0 1.65784,-0.67567 1.65784,-1.56838c0,-0.89447 -0.4609,-1.55438 -1.67185,-1.55438h-1.58598v3.12276z" fill="#2d2f38" fill-opacity="1"></path></g><g><title>Fill 13</title><path d="M25.07772,135.87v0v5.85692v0h0.07368v0l4.0772,-5.85692v0h0.87368v0v7.4393v0h-0.90351v0v-5.84116v0h-0.07193v0l-4.06316,5.84116v0h-0.87368v0v-7.4393v0z" fill="#2d2f38" fill-opacity="1"></path></g><g><title>Fill 15</title><path d="M32.13,142.50936h0.4807c0.49649,-0.44986 0.94737,-1.36358 1.04912,-3.50085l0.15965,-3.13851h4.42807v6.63936h0.8579v2.58887h-0.8579v-1.78893h-5.25789v1.80119h-0.85965zM37.3879,142.50935v-5.83941h-2.75264l-0.11579,2.33857c-0.08771,1.62789 -0.37894,2.79017 -0.82982,3.50084z" fill="#2d2f38" fill-opacity="1"></path></g><g><title>Fill 17</title><path d="M42.13772,135.87v0v5.85692v0h0.07368v0l4.0772,-5.85692v0h0.87368v0v7.4393v0h-0.90351v0v-5.84116v0h-0.07193v0l-4.06316,5.84116v0h-0.87368v0v-7.4393v0z" fill="#2d2f38" fill-opacity="1"></path></g><g><title>Fill 19</title><path d="M50.50351,135.87v0v2.4856c0,1.10452 0.61228,1.4371 1.57193,1.4371c0.75438,0 1.43158,-0.11553 2.06842,-0.30107v-3.62163v0h0.90351v0v7.4393v0h-0.90351v0v-3.00023c-0.60702,0.18205 -1.16491,0.29758 -2.06842,0.29758c-1.54211,0 -2.47544,-0.6109 -2.47544,-2.25105v-2.4856v0z" fill="#2d2f38" fill-opacity="1"></path></g><g><title>Fill 21</title><path d="M57.68,135.87v0h4.49998v0v0.79994v0h-3.59647v0v2.51361v0h3.36314v0v0.79995v0h-3.36314v0v2.52586v0h3.65436v0v0.79994v0h-4.55787v0z" fill="#2d2f38" fill-opacity="1"></path></g><g><title>Fill 23</title><path d="M69.59772,138.19784c-0.2193,-1.03275 -1.10702,-1.58239 -2.09649,-1.58239c-1.35439,0 -2.41755,1.04501 -2.41755,2.97747c0,1.93072 1.06316,2.97748 2.41755,2.97748c0.98947,0 1.87719,-0.54964 2.09649,-1.58239h0.90351c-0.27719,1.52462 -1.5,2.42609 -3,2.42609c-1.90877,0 -3.29123,-1.46686 -3.29123,-3.82118c0,-2.35431 1.38246,-3.82292 3.29123,-3.82292c1.5,0 2.72281,0.90322 3,2.42784z" fill="#2d2f38" fill-opacity="1"></path></g><g><title>Fill 25</title><path d="M74.55105,139.89422v0h-0.91754v0v3.41508v0h-0.90351v0v-7.4393v0h0.90351v0v3.22603v0h0.39298v0l2.98597,-3.22603v0h1.07719v0l-3.01404,3.26804v0l3.11579,4.17126v0h-1.07719v0z" fill="#2d2f38" fill-opacity="1"></path></g><g><title>Fill 27</title><path d="M79.87,143.3093l2.73684,-7.4393h0.93158l2.7386,7.4393h-0.94737l-0.74912,-2.10576h-3.01404l-0.75088,2.10576zM84.29632,140.39361l-1.19474,-3.34732h-0.05789l-1.19474,3.34732z" fill="#2d2f38" fill-opacity="1"></path></g><g><title>Fill 29</title><path d="M92.42209,143.3093v-2.9057h-1.63157c-0.06492,0 -0.12632,0 -0.18948,-0.0035l-1.57192,2.9092h-1.04912l1.68595,-3.07374c-0.95087,-0.32208 -1.39473,-1.09752 -1.39473,-2.08476c0,-1.31457 0.78772,-2.2808 2.53508,-2.2808h2.51928v7.4393zM92.42378,136.66994h-1.58961c-1.21021,0 -1.67568,0.58814 -1.67568,1.48086c0,0.89271 0.46546,1.43885 1.66163,1.43885h1.60366z" fill="#2d2f38" fill-opacity="1"></path></g><g><title>Fill 31</title><path d="M32.35999,151.88525v-1.01525h0.90351v1.01525h0.13158c1.65965,0 2.85437,1.19203 2.85437,2.93546c0,1.74517 -1.19473,2.94946 -2.85437,2.94946h-0.13158v0.97323h-0.90351v-0.97323h-0.14561c-1.65965,0 -2.85438,-1.19204 -2.85438,-2.93546c0,-1.74342 1.19474,-2.94946 2.85438,-2.94946zM32.21954,156.962h0.14609v-4.2768h-0.14609c-1.27085,0 -1.95732,0.83999 -1.95732,2.14451c0,1.29054 0.68647,2.13229 1.95732,2.13229zM33.25788,156.962h0.13265c1.27699,0 1.96678,-0.84174 1.96678,-2.14626c0,-1.29055 -0.68979,-2.13054 -1.96678,-2.13054h-0.13265z" fill="#2d2f38" fill-opacity="1"></path></g><g><title>Fill 34</title><path d="M39.34772,151v0v5.85692v0h0.07368v0l4.0772,-5.85692v0h0.87368v0v7.4393v0h-0.90351v0v-5.84116v0h-0.07193v0l-4.06316,5.84116v0h-0.87368v0v-7.4393v0z" fill="#2d2f38" fill-opacity="1"></path></g><g><title>Fill 36</title><path d="M47,151h2.5193c1.75088,0 2.53509,1.03975 2.53509,2.35432c0,1.31282 -0.78421,2.36657 -2.5193,2.36657h-1.63158v2.71841h-0.90351zM49.50526,154.9227c1.19825,0 1.65965,-0.67567 1.65965,-1.56838c0,-0.89447 -0.4614,-1.55438 -1.67368,-1.55438h-1.58772v3.12276z" fill="#2d2f38" fill-opacity="1"></path></g><g><title>Fill 38</title><path d="M55.32719,151v0l2.53334,6.17374v0h0.08772v0l2.53333,-6.17374v0h1.07895v0v7.4393v0h-0.84562v0v-5.65212v0h-0.07193v0l-2.32982,5.65212v0h-0.81579v0l-2.32983,-5.65212v0h-0.07368v0v5.65212v0h-0.84386v0v-7.4393v0z" fill="#2d2f38" fill-opacity="1"></path></g><g><title>Fill 40</title><path d="M63.71,158.4393l2.73684,-7.4393h0.93158l2.7386,7.4393h-0.94737l-0.74912,-2.10576h-3.01579l-0.74913,2.10576zM68.13632,155.52361l-1.19474,-3.34732h-0.05789l-1.19474,3.34732z" fill="#2d2f38" fill-opacity="1"></path></g><g><title>Fill 42</title><path d="M4.39,125.2085v0h90.68947v0v-4.2185v0h-90.68947v0z" fill="#ffffff" fill-opacity="1"></path></g><g><title>Group 8</title><g><title>Clip 7</title></g><g clip-path="url(#clip-771D3DE3-D0BF-48F7-A4A9-C334D0B0DABC)"><title>Fill 6</title><path d="M93.0486,43.84919c-12.84912,-12.91638 -25.78246,-25.74873 -38.67544,-38.6231c-1.52982,-1.52637 -3.01052,-3.10175 -4.3807,-4.51609c-5.12807,5.10248 -10.10526,10.05443 -15.00175,14.92586c2.55263,2.51711 5.10175,5.03772 7.64736,7.56183c2.07544,-2.062 4.16843,-4.10474 6.18772,-6.2175c0.71755,-0.74918 1.08948,-0.64941 1.76842,0.03851c4.43509,4.47758 8.91229,8.9184 13.37544,13.36798l-7.08245,7.06821c2.55087,2.57137 5.10526,5.14099 7.65263,7.71587l7.12281,-7.10672c4.54736,4.53709 9.09473,9.07419 13.63859,13.61129c1.85088,1.8467 2.92106,4.07674 3.03684,6.68312c0.19299,4.26403 -2.23157,8.09396 -6.07543,9.75511c-3.89123,1.6839 -8.1579,0.8262 -11.25965,-2.29831c-6.77369,-6.81965 -13.51053,-13.67431 -20.31228,-20.4642c-6.45965,-6.44856 -12.98772,-12.8271 -19.47193,-19.25116c-1.16141,-1.15178 -2.25264,-2.37357 -3.39825,-3.58486c-0.40702,0.33608 -0.61579,0.48311 -0.79649,0.66166c-6.94211,6.92292 -13.92632,13.80208 -20.81053,20.78102c-10.60526,10.7476 -7.14386,28.47064 6.64913,34.34331c7.7228,3.28555 17.02456,1.51762 23.03157,-4.39706c2.4,-2.36307 4.77369,-4.75065 7.15439,-7.13123c0.27719,-0.27831 0.52807,-0.58464 0.7807,-0.86646c-2.61579,-2.59412 -5.13509,-5.09373 -7.75438,-7.69136c-0.24211,0.22406 -0.49474,0.44111 -0.72983,0.67392c-2.33333,2.32281 -4.67193,4.64037 -6.99298,6.97368c-1.49298,1.50187 -3.26842,2.59413 -5.32105,2.95647c-4.53685,0.80169 -8.84562,-1.41434 -10.89825,-5.40181c-2.04912,-3.98046 -1.22105,-8.58408 2.13509,-11.92913c3.47193,-3.45709 6.93509,-6.92468 10.40702,-10.38177c0.97017,-0.96798 1.95438,-1.92021 3.18772,-3.128c0.31754,0.47436 0.5,0.86821 0.78772,1.15703c11.53684,11.52829 23.05614,23.07233 34.63859,34.55686c5.13158,5.08848 11.4193,7.15398 18.5193,5.89717c8.39474,-1.48611 14.14035,-6.45906 16.62105,-14.59678c2.43334,-7.98368 0.53509,-15.19717 -5.3807,-21.14336" fill="#ffffff" fill-opacity="1"></path></g></g></g></g></g></svg> 